<?xml version="1.0" encoding="UTF-8"?>
<svg xmlns="http://www.w3.org/2000/svg" viewBox="0 0 190 200" fill="none" version="1.1" id="svg1">
    <!-- <defs id="defs1">
       <rect id="rect19" />
    </defs> -->
    <g id="layer1">
       <path
          d="m 69.934624,87.465228 q 0,1.033525 -0.775144,1.808669 -0.775144,0.723468 -1.80867,0.723468 H 62.699946 Q 59.857751,84.312975 52.623074,71.290555 45.388396,58.268135 39.65233,47.571148 V 89.997365 H 30.143896 V 26.435553 q 0,-1.033525 0.775144,-1.808669 0.775144,-0.775144 1.80867,-0.775144 h 5.374332 q 0,0.05168 0.878496,1.756993 0.878497,1.705317 2.325432,4.547512 1.446936,2.842195 3.307282,6.459533 1.912022,3.617339 3.87572,7.49306 2.015374,3.87572 3.979073,7.699764 1.963698,3.772367 3.617339,6.976296 1.65364,3.152253 2.790518,5.374332 1.188554,2.22208 1.550288,2.945548 V 23.85174 h 9.508434 z"
          aria-label="N" class="svg-elem-1" fill="#AF8F6F" stroke="#74512d"/>
       <path
          d="m 110.45806,77.926582 q 0,5.322656 -3.9274,9.1467 -3.9274,3.772368 -9.40508,3.772368 H 86.790326 q -5.529361,0 -9.56011,-3.720692 -4.082425,-3.720691 -4.082425,-9.198376 v -40.30749 q 0,-5.529361 4.082425,-9.250052 4.082426,-3.720692 9.56011,-3.720692 H 97.12558 q 5.42601,0 9.40508,3.772368 3.9274,3.772368 3.9274,9.198376 z m -9.35341,-1.705317 V 39.324409 q 0,-4.185778 -2.893868,-5.942771 -0.930173,-0.620115 -2.22208,-0.568439 h -8.578261 q -2.222079,0 -3.565662,1.963698 -1.343583,1.963698 -1.343583,4.547512 v 36.896856 q 0,4.082426 2.738842,5.891095 0.930173,0.620115 2.170403,0.620115 h 8.578261 q 2.377109,0 3.772368,-2.015374 1.34358,-2.015375 1.34358,-4.495836 z"
          class="svg-elem-2" aria-label="O" fill="#AF8F6F" stroke="#74512d"/>
       <path
          d="m 149.44327,25.659761 q 2.32543,0 2.63549,2.583814 v 5.942771 h -15.29618 v 57.515688 h -9.45675 V 34.186346 h -15.29618 v -5.942771 q 0,-1.136878 0.77514,-1.860346 0.82682,-0.723468 1.91203,-0.723468 z"
          class="svg-elem-3" aria-label="T" fill="#AF8F6F" stroke="#74512d"/>
       <path
          d="m 189.09419,91.413719 h -22.32414 q -4.8059,0 -8.68162,-3.0489 -3.92739,-3.0489 -3.92739,-7.75144 V 36.120111 q 0,-4.702541 3.92739,-7.803117 3.9274,-3.100576 8.68162,-3.100576 h 22.32414 v 8.16485 h -21.70403 q -2.01537,0 -2.94555,1.291907 -0.93017,1.291907 -0.93017,3.152253 v 15.967967 h 23.46103 v 7.958145 h -23.46103 v 17.156522 q 0,1.860346 0.93017,3.152252 0.93018,1.291907 2.94555,1.291907 h 21.70403 z"
          class="svg-elem-4" aria-label="E" fill="#AF8F6F" stroke="#74512d"/>
       <path
          d="m 134.49421,143.7263 h -6.23562 v -18.74133 h -13.09137 v 18.74133 h -6.23563 v -36.86254 q 0,-3.13504 2.61827,-5.2021 2.61828,-2.06706 5.78777,-2.06706 h 8.95725 q 3.10059,0 5.64996,2.10151 2.54937,2.10151 2.54937,5.16765 z m -6.23562,-24.04678 v -11.67888 q 0,-1.24024 -0.72347,-2.10151 -0.68902,-0.86128 -1.99816,-0.86128 h -7.78592 q -1.34359,0 -1.96371,0.86128 -0.62011,0.86127 -0.62011,2.10151 v 11.67888 z"
          class="svg-elem-5" aria-label="A" fill="#AF8F6F" stroke="#74512d"/>
       <path
          d="m 190.26794,118.76685 q 0,3.06614 -1.86035,4.9954 -1.86035,1.8948 -4.96094,1.8948 h -12.12674 v 19.08584 h -6.27008 v -44.16615 h 17.01878 q 3.3762,0 5.78777,2.23931 2.41156,2.23931 2.41156,5.61551 z m -6.23562,-1.48139 v -7.71702 q 0,-2.30821 -1.79145,-3.34174 -0.55122,-0.34451 -1.27469,-0.31006 h -9.64627 v 14.33161 h 10.6798 q 1.757,-0.0345 1.96371,-1.89481 0.0689,-0.55121 0.0689,-1.06798 z"
          class="svg-elem-6" aria-label="P" fill="#AF8F6F" stroke="#74512d"/>
       <path
          d="m 162.60017,118.73682 q 0,3.06614 -1.86035,4.9954 -1.86035,1.8948 -4.96094,1.8948 h -12.12674 v 19.08584 h -6.27008 v -44.16615 h 17.01878 q 3.3762,0 5.78777,2.23931 2.41156,2.23932 2.41156,5.61551 z m -6.23562,-1.48139 v -7.71702 q 0,-2.30821 -1.79145,-3.34174 -0.55122,-0.34451 -1.27469,-0.31006 h -9.64627 v 14.33161 h 10.6798 q 1.757,-0.0345 1.96371,-1.89481 0.0689,-0.55121 0.0689,-1.06798 z"
          class="svg-elem-7" aria-label="P" fill="#AF8F6F" stroke="#74512d"/>
       <path style="fill:none;fill-opacity:0;stroke-width:4;stroke-linecap:round;stroke-linejoin:round"
          d="M 32.199019,157.00407 H 190.61858 c 3.85241,0 6.95381,3.1014 6.95381,6.95381 0,3.85241 -3.1014,6.95381 -6.95381,6.95381 H 32.199019 c -3.85241,0 -6.953808,-3.1014 -6.953808,-6.95381 0,-3.85241 3.101398,-6.95381 6.953808,-6.95381 z"
          class="svg-elem-8" />
       <path
          d="m 60.455581,134.40469 q -1.905001,-2.11667 -1.905001,-2.82222 0,-0.70556 0.493889,-1.34056 0.529167,-0.67028 1.305279,-0.67028 h 11.641675 v -4.97417 H 56.716134 v -2.57528 h 20.743348 v 2.57528 H 74.60198 v 19.05002 h -2.610557 v -11.53584 h -7.902228 v 3.10444 q 0,0.84667 -0.176389,1.05834 -0.176389,0.21166 -0.987778,0.21166 -0.564445,0 -2.469447,-2.08139 z m 24.976645,-9.80723 h -3.069169 v 19.05002 h -2.540002 v -19.05002 h -3.069168 v -2.57528 h 3.069168 l -8.360839,-8.00806 2.151946,-2.08139 8.854728,10.08945 h 2.963336 z"
          class="svg-elem-9" aria-label="नो" fill="#AF8F6F" stroke="#74512d"/>
       <path
          d="m 88.444462,135.08643 q 0,-2.71639 1.799168,-4.62139 1.834446,-1.94028 3.739447,-1.94028 h 5.326948 v -3.95112 H 85.798627 v -2.57528 h 20.743343 v 2.57528 h -4.65667 v 6.56168 h -7.478889 q -1.44639,0 -2.398891,1.34055 -0.917222,1.34056 -0.917222,2.75167 0,1.44639 0.529167,2.61056 0.529167,1.12889 1.27,1.76389 0.776112,0.635 1.728613,1.05833 0.9525,0.38806 1.658056,0.52917 0.705556,0.10583 1.270001,0.10583 3.351395,0 5.150555,-3.03389 l 2.39889,1.48167 q -3.03389,4.09222 -7.373056,4.09222 -3.810002,0 -6.526393,-2.50472 -2.716391,-2.50472 -2.751669,-6.24417 z"
          class="svg-elem-10" aria-label="ट" fill="#AF8F6F" stroke="#74512d"/>
    </g>
 </svg>